<?xml version="1.0" standalone="no"?>
<!DOCTYPE svg PUBLIC "-//W3C//DTD SVG 20010904//EN"
 "http://www.w3.org/TR/2001/REC-SVG-20010904/DTD/svg10.dtd">
<svg version="1.0" xmlns="http://www.w3.org/2000/svg"
 width="700.000000pt" height="700.000000pt" viewBox="0 0 700.000000 700.000000"
 preserveAspectRatio="xMidYMid meet">
<metadata>
Created by potrace 1.11, written by Peter Selinger 2001-2013
</metadata>
<g transform="translate(0.000000,700.000000) scale(0.100000,-0.100000)"
fill="#000000" stroke="none">
<path d="M2 5343 c0 -912 3 -1642 5 -1623 20 210 27 270 44 374 98 576 344
1123 722 1599 103 131 403 431 534 534 268 213 584 399 873 515 219 88 505
169 726 207 104 17 164 24 374 44 19 2 -711 5 -1622 5 l-1658 2 2 -1657z"/>
<path d="M3720 6993 c210 -20 270 -27 374 -44 576 -98 1123 -344 1599 -722
131 -103 431 -403 534 -534 213 -268 399 -584 515 -873 88 -218 169 -504 207
-726 17 -104 24 -164 44 -374 2 -19 5 711 5 1623 l2 1657 -1657 -2 c-912 0
-1642 -3 -1623 -5z"/>
<path d="M3430 6805 l0 -126 68 3 67 3 0 120 0 120 -67 3 -68 3 0 -126z"/>
<path d="M2603 6813 c-34 -10 -53 -21 -53 -31 0 -16 51 -214 57 -221 1 -2 32
4 68 14 48 13 65 21 61 31 -3 8 -18 62 -33 119 -15 58 -32 105 -37 104 -6 0
-35 -8 -63 -16z"/>
<path d="M4284 6712 l-31 -119 65 -17 c35 -9 65 -16 66 -14 2 2 15 50 30 107
15 57 30 109 32 116 3 8 -16 18 -54 29 -32 9 -63 16 -68 16 -5 0 -23 -53 -40
-118z"/>
<path d="M3355 6614 c-657 -35 -1259 -260 -1785 -668 -135 -104 -412 -381
-516 -516 -367 -473 -579 -987 -649 -1575 -23 -188 -23 -522 0 -710 70 -588
282 -1102 649 -1575 104 -135 381 -412 516 -516 473 -367 987 -579 1575 -649
188 -23 522 -23 710 0 588 70 1102 282 1575 649 135 104 412 381 516 516 367
473 579 987 649 1575 23 188 23 522 0 710 -70 588 -282 1102 -649 1575 -104
135 -381 412 -516 516 -472 366 -1000 584 -1570 648 -144 16 -390 26 -505 20z
m560 -153 c548 -83 995 -273 1435 -611 122 -94 406 -378 500 -500 342 -446
533 -900 616 -1465 25 -169 25 -601 0 -770 -83 -565 -274 -1019 -616 -1465
-94 -122 -378 -406 -500 -500 -446 -342 -900 -533 -1465 -616 -169 -25 -601
-25 -770 0 -565 83 -1019 274 -1465 616 -122 94 -406 378 -500 500 -342 446
-533 900 -616 1465 -25 169 -25 601 0 770 83 565 274 1019 616 1465 94 122
378 406 500 500 492 378 1015 580 1640 634 117 10 500 -4 625 -23z"/>
<path d="M3255 6449 c-418 -37 -839 -165 -1189 -362 -487 -273 -881 -666
-1154 -1153 -276 -492 -410 -1111 -362 -1664 56 -633 281 -1184 682 -1667 456
-550 1118 -923 1825 -1028 474 -71 923 -31 1379 120 702 234 1285 717 1652
1371 236 421 372 945 372 1434 0 489 -136 1013 -373 1434 -273 487 -666 881
-1153 1154 -495 277 -1118 411 -1679 361z m500 -119 c457 -43 894 -192 1280
-438 315 -201 656 -542 857 -857 598 -939 598 -2131 0 -3070 -201 -315 -542
-656 -857 -857 -939 -598 -2131 -598 -3070 0 -315 201 -656 542 -857 857 -598
939 -598 2131 0 3070 201 315 542 656 857 857 379 241 825 395 1265 437 126
12 399 12 525 1z"/>
<path d="M3280 6304 c-691 -65 -1287 -341 -1765 -819 -440 -440 -709 -980
-802 -1610 -13 -90 -17 -183 -17 -375 0 -192 4 -285 17 -375 93 -630 362
-1170 802 -1610 440 -440 980 -709 1610 -802 169 -24 581 -24 750 0 630 93
1170 362 1610 802 440 440 709 980 802 1610 13 90 17 183 17 375 0 192 -4 285
-17 375 -93 630 -362 1170 -802 1610 -433 433 -968 703 -1577 796 -129 20
-512 34 -628 23z m455 -114 c653 -60 1235 -336 1691 -802 293 -298 492 -619
630 -1017 302 -870 122 -1864 -466 -2579 -325 -395 -734 -679 -1219 -848 -859
-298 -1850 -125 -2558 448 -641 517 -1013 1291 -1013 2108 0 986 534 1887
1405 2369 452 251 1014 368 1530 321z"/>
<path d="M3315 6164 c-404 -40 -676 -115 -1001 -274 -149 -74 -355 -205 -494
-316 -109 -87 -307 -285 -394 -394 -316 -396 -506 -842 -577 -1360 -17 -124
-17 -516 0 -640 59 -431 198 -808 420 -1141 120 -180 202 -281 346 -424 425
-426 946 -681 1565 -766 124 -17 516 -17 640 0 518 71 964 261 1360 577 109
87 307 285 394 394 225 282 402 623 494 955 72 258 96 439 96 725 0 286 -24
467 -96 725 -92 332 -269 673 -494 955 -87 109 -285 307 -394 394 -388 310
-826 499 -1325 572 -97 14 -458 26 -540 18z m475 -115 c297 -32 631 -134 900
-276 223 -117 410 -254 599 -438 464 -452 730 -1032 771 -1682 40 -634 -164
-1269 -567 -1768 -97 -120 -296 -316 -413 -407 -416 -322 -900 -504 -1428
-538 -616 -39 -1235 153 -1732 538 -117 91 -316 287 -413 407 -403 499 -607
1134 -567 1768 34 527 216 1011 538 1427 91 117 287 316 407 413 537 434 1209
630 1905 556z"/>
<path d="M3354 6029 c-624 -35 -1199 -293 -1644 -739 -517 -516 -777 -1197
-739 -1932 33 -625 291 -1201 739 -1648 516 -517 1197 -777 1932 -739 625 33
1201 291 1648 739 517 516 777 1197 739 1932 -33 625 -291 1201 -739 1648
-332 333 -726 556 -1179 670 -147 36 -288 58 -421 65 -58 3 -127 7 -155 9 -27
1 -109 -1 -181 -5z m351 -99 c478 -44 900 -209 1290 -503 103 -78 354 -329
432 -432 199 -264 354 -576 428 -861 111 -427 111 -841 0 -1268 -74 -285 -229
-597 -428 -861 -78 -103 -329 -354 -432 -432 -264 -199 -576 -354 -861 -428
-427 -111 -841 -111 -1268 0 -285 74 -597 229 -861 428 -103 78 -354 329 -432
432 -199 264 -354 576 -428 861 -111 427 -111 841 0 1268 74 285 229 597 428
861 78 103 329 354 432 432 264 199 576 354 861 428 283 73 573 99 839 75z"/>
<path d="M3285 5689 c-386 -37 -776 -188 -1100 -428 -128 -95 -351 -318 -446
-446 -583 -789 -583 -1841 0 -2630 95 -128 318 -351 446 -446 132 -98 275
-182 410 -243 735 -328 1572 -237 2220 243 128 95 351 318 446 446 583 789
583 1841 0 2630 -40 55 -135 161 -210 236 -202 202 -407 346 -646 453 -352
157 -740 221 -1120 185z"/>
<path d="M5095 6406 c-32 -55 -60 -104 -62 -108 -3 -6 97 -68 110 -68 7 0 115
181 119 199 2 7 -22 27 -53 45 l-56 34 -58 -102z"/>
<path d="M1783 6470 c-29 -17 -53 -33 -53 -37 0 -16 112 -203 122 -203 19 0
108 55 106 65 -5 17 -113 205 -118 205 -3 0 -29 -14 -57 -30z"/>
<path d="M1070 5925 l-45 -45 88 -88 87 -87 47 48 48 47 -85 85 c-46 47 -87
85 -90 85 -3 0 -26 -20 -50 -45z"/>
<path d="M5790 5885 l-85 -85 48 -47 47 -48 87 87 88 88 -45 45 c-24 25 -47
45 -50 45 -3 0 -44 -38 -90 -85z"/>
<path d="M531 5218 c-17 -29 -31 -56 -31 -59 0 -4 33 -26 73 -49 39 -24 86
-51 104 -62 l31 -19 31 54 c17 30 31 58 31 63 0 7 -159 103 -202 122 -4 2 -21
-21 -37 -50z"/>
<path d="M6330 5214 c-52 -31 -97 -58 -100 -61 -7 -6 53 -113 64 -113 12 0
206 112 206 119 0 12 -61 111 -68 111 -4 -1 -50 -26 -102 -56z"/>
<path d="M186 4389 c-10 -33 -15 -63 -13 -65 5 -5 216 -64 228 -64 8 0 42 120
35 127 -4 5 -214 63 -227 63 -4 0 -14 -27 -23 -61z"/>
<path d="M6671 4420 c-57 -16 -105 -31 -108 -34 -8 -8 30 -126 41 -126 15 1
217 58 223 64 9 8 -30 126 -41 125 -6 0 -58 -13 -115 -29z"/>
<path d="M77 3564 c-4 -4 -7 -36 -7 -71 l0 -63 125 0 126 0 -3 68 -3 67 -116
3 c-63 1 -118 -1 -122 -4z"/>
<path d="M6687 3564 c-4 -4 -7 -36 -7 -71 l0 -63 125 0 126 0 -3 68 -3 67
-116 3 c-63 1 -118 -1 -122 -4z"/>
<path d="M2 1658 l-2 -1658 1658 2 c911 0 1641 3 1622 5 -210 20 -270 27 -374
44 -574 97 -1123 345 -1599 722 -131 103 -431 403 -534 534 -213 268 -399 584
-515 873 -88 219 -169 505 -207 726 -17 104 -24 164 -44 374 -2 19 -5 -711 -5
-1622z"/>
<path d="M6990 3263 c0 -130 -46 -418 -100 -628 -126 -492 -340 -921 -663
-1328 -103 -131 -403 -431 -534 -534 -268 -213 -584 -399 -873 -515 -218 -88
-504 -169 -726 -207 -104 -17 -164 -24 -374 -44 -19 -2 711 -5 1623 -5 l1657
-2 0 1655 c0 910 -2 1655 -5 1655 -3 0 -5 -21 -5 -47z"/>
<path d="M285 2709 c-60 -17 -111 -32 -113 -34 -7 -7 31 -125 41 -125 20 0
212 52 220 60 9 8 -21 131 -32 129 -3 0 -55 -14 -116 -30z"/>
<path d="M6575 2679 c-9 -34 -13 -65 -8 -69 8 -7 201 -60 220 -60 10 0 48 118
41 125 -3 4 -224 65 -232 65 -2 0 -11 -28 -21 -61z"/>
<path d="M607 1910 c-54 -32 -100 -60 -103 -63 -6 -5 25 -70 49 -101 13 -18
18 -16 113 39 54 32 101 60 104 62 5 4 -51 112 -60 117 -3 2 -49 -23 -103 -54z"/>
<path d="M6258 1911 c-16 -27 -28 -53 -28 -59 0 -5 46 -36 102 -67 97 -56 102
-57 115 -39 19 25 55 95 51 99 -14 11 -198 115 -205 115 -4 0 -20 -22 -35 -49z"/>
<path d="M1110 1205 l-85 -85 48 -47 47 -48 87 87 88 88 -45 45 c-24 25 -47
45 -50 45 -3 0 -44 -38 -90 -85z"/>
<path d="M5750 1245 l-45 -45 88 -88 87 -87 47 48 48 47 -85 85 c-46 47 -87
85 -90 85 -3 0 -26 -20 -50 -45z"/>
<path d="M1783 672 l-62 -107 57 -32 c31 -17 59 -30 64 -27 10 7 121 204 117
208 -2 2 -29 17 -59 34 l-55 31 -62 -107z"/>
<path d="M5085 740 c-27 -16 -49 -35 -47 -41 5 -21 113 -199 120 -199 4 0 31
14 60 31 l53 30 -32 57 c-69 121 -85 146 -94 149 -6 1 -32 -11 -60 -27z"/>
<path d="M2576 338 c-15 -57 -29 -110 -32 -118 -3 -12 12 -20 58 -32 35 -10
66 -14 69 -10 7 8 59 202 59 220 0 10 -87 42 -115 42 -7 0 -24 -46 -39 -102z"/>
<path d="M4313 423 c-29 -9 -53 -20 -53 -26 0 -19 53 -212 60 -220 4 -5 35 -1
69 9 47 13 60 20 57 33 -3 9 -17 62 -32 119 -15 56 -32 102 -38 101 -6 0 -35
-8 -63 -16z"/>
<path d="M3430 195 l0 -126 68 3 67 3 0 120 0 120 -67 3 -68 3 0 -126z"/>
</g>
</svg>
