<?xml version="1.0" standalone="no"?>
<!DOCTYPE svg PUBLIC "-//W3C//DTD SVG 20010904//EN"
 "http://www.w3.org/TR/2001/REC-SVG-20010904/DTD/svg10.dtd">
<svg version="1.0" xmlns="http://www.w3.org/2000/svg"
 width="700.000000pt" height="700.000000pt" viewBox="0 0 700.000000 700.000000"
 preserveAspectRatio="xMidYMid meet">
<metadata>
Created by potrace 1.11, written by Peter Selinger 2001-2013
</metadata>
<g transform="translate(0.000000,700.000000) scale(0.100000,-0.100000)"
fill="#000000" stroke="none">
<path d="M2 5353 c1 -907 3 -1628 5 -1603 28 375 126 782 270 1118 56 132 131
282 183 367 22 36 40 68 40 70 0 10 144 221 214 314 171 227 447 502 681 678
82 62 290 203 300 203 2 0 34 18 70 40 389 238 967 415 1485 453 25 2 -696 4
-1602 5 l-1648 2 2 -1647z"/>
<path d="M3750 6993 c519 -39 1095 -215 1485 -453 36 -22 68 -40 70 -40 10 0
221 -144 314 -214 227 -171 502 -447 678 -681 62 -82 203 -290 203 -300 0 -2
18 -34 40 -70 238 -389 415 -967 453 -1485 2 -25 4 696 5 1603 l2 1647 -1647
-2 c-907 -1 -1628 -3 -1603 -5z"/>
<path d="M3430 6805 l0 -125 65 0 65 0 0 125 0 125 -65 0 -65 0 0 -125z"/>
<path d="M2608 6812 c-32 -8 -58 -19 -58 -25 0 -18 52 -212 59 -219 6 -7 108
15 119 27 6 6 -46 217 -56 226 -4 3 -33 -1 -64 -9z"/>
<path d="M4315 6818 c-10 -27 -55 -203 -55 -214 0 -17 120 -46 125 -31 10 28
55 203 55 214 0 7 -19 17 -42 23 -24 6 -51 13 -61 16 -9 3 -19 -1 -22 -8z"/>
<path d="M3180 6599 c-527 -54 -1049 -251 -1484 -561 -736 -525 -1207 -1336
-1296 -2237 -13 -133 -13 -469 0 -602 89 -900 560 -1712 1295 -2236 444 -316
960 -509 1504 -563 133 -13 469 -13 602 0 544 54 1060 247 1504 563 735 524
1206 1336 1295 2236 5 57 10 192 10 301 0 109 -5 244 -10 301 -89 900 -560
1712 -1295 2236 -444 316 -960 509 -1504 563 -121 12 -499 11 -621 -1z m754
-139 c331 -50 593 -133 891 -280 594 -293 1062 -761 1355 -1355 151 -306 234
-576 287 -930 25 -170 25 -620 0 -790 -53 -354 -136 -624 -287 -930 -293 -594
-761 -1062 -1355 -1355 -306 -151 -576 -234 -930 -287 -170 -25 -620 -25 -790
0 -354 53 -624 136 -930 287 -594 293 -1062 761 -1355 1355 -151 306 -234 576
-287 930 -25 170 -25 620 0 790 53 354 136 624 287 930 293 594 761 1062 1355
1355 308 152 596 240 925 284 175 23 188 24 450 21 187 -3 278 -9 384 -25z"/>
<path d="M3355 6454 c-482 -36 -812 -125 -1200 -322 -549 -280 -1007 -738
-1287 -1287 -221 -436 -322 -854 -322 -1345 0 -491 101 -909 322 -1345 417
-819 1195 -1397 2107 -1565 324 -59 726 -59 1050 0 912 168 1690 746 2107
1565 221 436 322 854 322 1345 0 491 -101 909 -322 1345 -444 873 -1306 1475
-2277 1590 -125 14 -413 26 -500 19z m549 -138 c328 -54 567 -128 841 -261
799 -389 1379 -1142 1544 -2005 41 -215 46 -272 46 -550 0 -174 -5 -306 -13
-360 -53 -349 -129 -601 -267 -885 -389 -799 -1142 -1379 -2005 -1544 -215
-41 -272 -46 -550 -46 -174 0 -306 5 -360 13 -349 53 -601 129 -885 267 -799
389 -1379 1142 -1544 2005 -41 215 -46 272 -46 550 0 278 5 335 46 550 129
678 520 1300 1084 1724 392 295 863 487 1340 545 50 6 104 13 120 15 77 11
555 -3 649 -18z"/>
<path d="M3315 6304 c-238 -23 -351 -42 -533 -90 -966 -250 -1746 -1030 -1996
-1996 -69 -266 -90 -434 -90 -718 0 -284 21 -452 90 -718 250 -966 1030 -1746
1996 -1996 266 -69 434 -90 718 -90 284 0 452 21 718 90 966 250 1746 1030
1996 1996 69 266 90 434 90 718 0 284 -21 452 -90 718 -204 787 -764 1463
-1505 1816 -279 133 -535 208 -854 252 -106 15 -457 26 -540 18z m440 -114
c820 -80 1548 -519 2005 -1211 288 -436 439 -945 439 -1479 0 -917 -450 -1751
-1220 -2260 -436 -288 -945 -439 -1479 -439 -917 0 -1751 450 -2260 1220 -288
436 -439 945 -439 1479 0 444 94 835 296 1234 412 808 1232 1368 2138 1455
117 12 404 12 520 1z"/>
<path d="M3355 6164 c-129 -9 -271 -28 -385 -51 -1046 -209 -1879 -1044 -2084
-2088 -40 -206 -50 -306 -50 -525 0 -219 10 -319 50 -525 205 -1046 1043
-1884 2089 -2089 206 -40 306 -50 525 -50 219 0 319 10 525 50 1046 205 1884
1043 2089 2089 40 206 50 306 50 525 0 435 -88 810 -280 1193 -398 796 -1157
1335 -2043 1452 -109 14 -397 26 -486 19z m519 -124 c281 -42 499 -111 762
-240 511 -252 912 -653 1164 -1164 94 -190 139 -310 185 -491 59 -230 78 -388
78 -645 0 -257 -19 -415 -78 -645 -46 -181 -91 -301 -185 -491 -204 -413 -499
-748 -889 -1008 -128 -86 -387 -217 -535 -271 -137 -50 -338 -100 -507 -126
-205 -32 -533 -32 -738 0 -290 44 -504 112 -767 241 -511 252 -912 653 -1164
1164 -129 263 -197 477 -241 767 -32 205 -32 533 0 738 44 290 112 504 241
767 244 495 630 888 1120 1143 301 156 613 247 961 281 141 13 433 4 593 -20z"/>
<path d="M3197 6015 c-561 -68 -1086 -324 -1487 -725 -479 -479 -740 -1111
-740 -1790 0 -679 261 -1311 740 -1790 479 -479 1111 -740 1790 -740 679 0
1311 261 1790 740 479 479 740 1111 740 1790 0 679 -261 1311 -740 1790 -406
406 -928 658 -1498 725 -153 18 -445 18 -595 0z m656 -100 c358 -56 703 -188
982 -373 604 -403 978 -997 1086 -1727 8 -54 14 -179 14 -315 0 -136 -6 -261
-14 -315 -82 -554 -317 -1031 -696 -1410 -379 -379 -856 -614 -1410 -696 -119
-18 -511 -18 -630 0 -554 82 -1031 317 -1410 696 -379 379 -614 856 -696 1410
-18 119 -18 511 0 630 82 554 317 1031 696 1410 266 265 588 466 940 584 200
67 335 96 595 125 77 9 450 -4 543 -19z"/>
<path d="M3318 5690 c-426 -38 -813 -189 -1163 -453 -103 -78 -314 -289 -392
-392 -194 -257 -333 -549 -402 -845 -74 -316 -74 -684 0 -1000 69 -296 208
-588 402 -845 78 -103 289 -314 392 -392 315 -237 650 -379 1040 -439 150 -23
460 -23 610 0 390 60 725 202 1040 439 103 78 314 289 392 392 194 257 333
549 402 845 74 316 74 684 0 1000 -69 296 -208 588 -402 845 -78 103 -289 314
-392 392 -314 237 -660 383 -1035 437 -135 20 -368 27 -492 16z"/>
<path d="M1783 6469 c-29 -17 -53 -33 -53 -36 0 -12 114 -203 121 -203 9 0 98
50 103 59 4 6 -93 184 -110 201 -5 5 -32 -5 -61 -21z"/>
<path d="M5094 6403 c-31 -54 -58 -101 -60 -104 -3 -5 69 -50 107 -67 4 -2 34
44 67 102 l61 105 -53 31 c-30 16 -56 30 -59 30 -3 0 -31 -44 -63 -97z"/>
<path d="M1076 5924 l-48 -47 86 -86 86 -86 47 48 48 47 -86 86 -86 86 -47
-48z"/>
<path d="M5789 5884 l-84 -84 48 -47 47 -48 84 84 84 84 -20 27 c-11 15 -33
37 -48 48 l-27 20 -84 -84z"/>
<path d="M531 5217 c-17 -30 -31 -57 -31 -60 0 -10 200 -118 209 -112 15 9 61
96 56 105 -3 5 -31 23 -63 40 -31 18 -76 43 -99 57 l-41 24 -31 -54z"/>
<path d="M6335 5215 c-49 -30 -94 -56 -100 -58 -6 -2 0 -23 14 -48 42 -78 37
-78 147 -13 55 31 101 58 103 60 5 4 -60 114 -67 113 -4 0 -47 -25 -97 -54z"/>
<path d="M187 4388 c-9 -34 -15 -63 -14 -64 5 -5 230 -64 232 -62 5 5 34 122
32 125 -3 2 -225 63 -231 63 -2 0 -11 -28 -19 -62z"/>
<path d="M6675 4419 c-60 -17 -111 -32 -112 -33 -2 -2 27 -120 32 -124 2 -3
227 57 232 61 4 5 -30 127 -36 126 -3 0 -55 -14 -116 -30z"/>
<path d="M70 3495 l0 -65 125 0 125 0 0 65 0 65 -125 0 -125 0 0 -65z"/>
<path d="M6680 3495 l0 -65 125 0 125 0 0 65 0 65 -125 0 -125 0 0 -65z"/>
<path d="M2 1648 l-2 -1648 1648 2 c906 1 1627 3 1602 5 -375 28 -782 126
-1118 270 -132 56 -282 131 -367 183 -36 22 -68 40 -70 40 -10 0 -218 141
-300 203 -234 176 -510 451 -681 678 -70 93 -214 304 -214 314 0 2 -18 34 -40
70 -238 389 -415 967 -453 1485 -2 25 -4 -696 -5 -1602z"/>
<path d="M6990 3242 c0 -193 -93 -640 -190 -916 -65 -182 -178 -427 -260 -561
-22 -36 -40 -68 -40 -70 0 -10 -144 -221 -214 -314 -171 -227 -447 -502 -681
-678 -82 -62 -290 -203 -300 -203 -2 0 -34 -18 -70 -40 -390 -238 -966 -414
-1485 -453 -25 -2 696 -4 1603 -5 l1647 -2 0 1645 c0 905 -2 1645 -5 1645 -3
0 -5 -22 -5 -48z"/>
<path d="M285 2707 c-60 -16 -111 -30 -112 -31 -7 -5 32 -126 41 -126 15 1
216 56 221 61 6 7 -26 129 -34 128 -3 -1 -55 -15 -116 -32z"/>
<path d="M6577 2678 c-9 -34 -14 -64 -12 -66 4 -4 216 -62 226 -62 6 0 41 123
36 126 -1 0 -47 13 -102 28 -55 15 -107 29 -116 32 -13 3 -20 -9 -32 -58z"/>
<path d="M600 1904 c-52 -31 -97 -57 -99 -59 -2 -2 11 -29 29 -60 l32 -56 66
37 c97 54 142 83 141 92 -1 14 -55 96 -64 98 -6 2 -53 -22 -105 -52z"/>
<path d="M6283 1948 c-19 -24 -57 -98 -52 -101 9 -9 197 -117 202 -117 7 0 70
110 66 114 -5 4 -192 110 -200 114 -3 1 -10 -3 -16 -10z"/>
<path d="M1112 1207 l-83 -84 47 -47 47 -48 86 86 86 86 -45 45 c-24 25 -47
45 -50 45 -3 0 -43 -38 -88 -83z"/>
<path d="M5750 1245 l-45 -45 86 -86 86 -86 47 48 47 47 -83 84 c-45 45 -85
83 -88 83 -3 0 -26 -20 -50 -45z"/>
<path d="M1784 669 c-32 -56 -53 -104 -48 -108 5 -5 30 -20 56 -35 l46 -27 56
94 c30 52 56 100 58 107 3 13 -76 68 -99 69 -6 1 -38 -44 -69 -100z"/>
<path d="M5084 738 l-51 -31 59 -103 c33 -57 62 -104 65 -104 3 0 30 14 60 31
l54 31 -19 31 c-11 18 -38 65 -61 105 -23 39 -45 72 -49 71 -4 0 -30 -14 -58
-31z"/>
<path d="M2575 328 c-16 -62 -28 -115 -28 -118 1 -3 29 -13 62 -22 l61 -16 14
51 c8 29 22 77 30 109 21 76 21 76 -21 87 -99 26 -86 36 -118 -91z"/>
<path d="M4318 423 c-32 -8 -58 -18 -58 -22 0 -10 58 -222 62 -226 2 -2 32 3
66 12 46 11 62 20 58 30 -3 7 -18 61 -33 118 -15 58 -29 105 -32 104 -3 -1
-32 -8 -63 -16z"/>
<path d="M3430 195 l0 -125 65 0 65 0 0 125 0 125 -65 0 -65 0 0 -125z"/>
</g>
</svg>
